<svg xmlns="http://www.w3.org/2000/svg" viewBox="0 0 90 40"><g stroke="null"><path fill="#b21a1a" d="M21.097 1.527c2.462 4.88 4.512 9.028 6.656 13.35l-13.436-.002 6.78-13.348z"/><path fill="#ad3232" d="M61.264 1.42c4.377-.01 8.205-.024 12.034-.015 1.11-.02 2.137.202 3.211.443 2.053.55 3.987 1.51 5.636 2.853.7.573 1.4 1.188 1.95 1.91.37.459.726.93 1.095 1.389.534.768.95 1.577 1.346 2.422 1.849 3.317 1.016 8.76.86 9.337a14.976 14.976 0 0 1-3.595 6.78 14.995 14.995 0 0 1-8.45 4.65c-16.705.258-16.954.274-17.204.299 4.55-9.195 4.724-9.559 4.942-9.9 3.06.012 6.12.002 9.18.004 2.493.057 4.804-2.034 5.044-4.507.158-.717.026-1.377-.128-2.08-.328-1.185-1.089-2.287-2.129-2.956a5.124 5.124 0 0 0-3.043-.867c-1.339.009-2.676-.01-4.014-.002-1.065 2.12-2.15 4.233-3.204 6.36-3.874-.005-7.749.004-11.623-.005l8.092-16.114z"/><path fill="#6d6b6b" d="M22.809 1.515c4.372.003 8.745-.009 13.117.006l5.265 10.28-6.611 13.758L22.809 1.515z"/><path fill="#343230" d="M46.133 1.518c4.544.001 9.09-.005 13.635.003-5.868 11.676-8.96 17.944-12.004 23.974l-13.216-.004L46.133 1.518z"/><path fill="#ad3232" d="M14.378 14.753c6.404 12.912 6.58 13.244 6.748 13.588-1.954 4.098-3.47 7.25-4.971 10.386-4.585.006-9.17.006-13.755 0l11.978-23.974z"/><path fill="#871010" d="m14.313 14.85 13.428-.001c3.945 7.933 7.968 15.956 11.91 23.89-4.45.006-8.905 0-13.356.004L14.313 14.849zm36.853 6.736c3.97-.012 7.948-.005 11.918-.003-6.435 12.915-7.435 15.17-8.442 17.2l-6.065-12.09c.694-1.363 1.367-2.736 2.054-4.102l.535-1.005z"/><path fill="#080604" d="M47.781 25.464c-2.226 4.437-4.441 8.88-6.658 13.323-3.571-7.198-5.072-10.267-6.583-13.317l13.241-.006z"/><path fill="#b21a1a" d="M54.688 38.78c-4.628-.004-10.39-.005-12.139-.015l6.04-12.129 6.1 12.144z"/></g></svg>